<svg xmlns="http://www.w3.org/2000/svg" width="48" height="47" viewBox="0 0 48 47" fill="none"><path d="M37.5198 29.046C36.5706 28.0465 35.4258 27.5121 34.2124 27.5121C33.0088 27.5121 31.8541 28.0366 30.8658 29.0361L27.7737 32.1534C27.5193 32.0149 27.2649 31.8863 27.0202 31.7576C26.668 31.5795 26.3353 31.4112 26.0515 31.2331C23.1551 29.3726 20.5228 26.948 17.9983 23.8109C16.7751 22.2473 15.9531 20.9311 15.3562 19.5951C16.1586 18.8529 16.9023 18.081 17.6264 17.3388C17.9004 17.0617 18.1744 16.7747 18.4484 16.4976C20.5033 14.4194 20.5033 11.7276 18.4484 9.64942L15.777 6.94775C15.4737 6.64096 15.1605 6.32428 14.867 6.0076C14.2799 5.39404 13.6634 4.76068 13.0274 4.1669C12.0782 3.21687 10.9431 2.71216 9.7493 2.71216C8.5555 2.71216 7.40084 3.21687 6.42232 4.1669C6.41254 4.1768 6.41254 4.1768 6.40275 4.1867L3.07577 7.5811C1.82326 8.84782 1.10894 10.3916 0.952374 12.1829C0.717529 15.0726 1.55906 17.7643 2.20488 19.5259C3.79009 23.8505 6.15812 27.8585 9.69059 32.1534C13.9765 37.3292 19.1333 41.4163 25.0241 44.2961C27.2747 45.3748 30.2787 46.6514 33.6351 46.8691C33.8405 46.879 34.0558 46.8889 34.2515 46.8889C36.5119 46.8889 38.4103 46.0676 39.8976 44.4347C39.9074 44.4149 39.927 44.405 39.9368 44.3852C40.4456 43.7617 41.0327 43.1976 41.6492 42.594C42.0699 42.1882 42.5005 41.7627 42.9212 41.3174C43.89 40.298 44.3988 39.1105 44.3988 37.8933C44.3988 36.6661 43.8802 35.4885 42.8919 34.4989L37.5198 29.046ZM41.0229 39.4668C41.0131 39.4668 41.0131 39.4767 41.0229 39.4668C40.6413 39.8824 40.2499 40.2585 39.8291 40.6741C39.1931 41.2877 38.5472 41.9309 37.9406 42.6534C36.9523 43.7221 35.7878 44.2269 34.2613 44.2269C34.1145 44.2269 33.958 44.2269 33.8112 44.217C30.905 44.0289 28.2043 42.881 26.1787 41.9012C20.6403 39.1897 15.777 35.34 11.7357 30.4612C8.39894 26.3938 6.1679 22.6333 4.69033 18.5956C3.78031 16.1314 3.44761 14.2116 3.59439 12.4006C3.69224 11.2427 4.13258 10.2828 4.94475 9.46139L8.28152 6.08677C8.76099 5.63155 9.26982 5.38414 9.76887 5.38414C10.3853 5.38414 10.8844 5.7602 11.1975 6.07688C11.2073 6.08677 11.2171 6.09667 11.2269 6.10657C11.8238 6.67065 12.3913 7.25453 12.9882 7.87799C13.2916 8.19467 13.6047 8.51135 13.9178 8.83793L16.5892 11.5396C17.6264 12.5886 17.6264 13.5584 16.5892 14.6074C16.3054 14.8944 16.0314 15.1814 15.7476 15.4585C14.9257 16.3096 14.1429 17.1013 13.2916 17.8732C13.272 17.893 13.2524 17.9029 13.2426 17.9227C12.4011 18.7737 12.5577 19.605 12.7338 20.1691C12.7436 20.1988 12.7534 20.2285 12.7632 20.2582C13.4579 21.9603 14.4364 23.5635 15.9238 25.4735L15.9336 25.4834C18.6343 28.8481 21.4818 31.4706 24.6229 33.4795C25.0241 33.7368 25.435 33.9447 25.8264 34.1426C26.1787 34.3207 26.5114 34.489 26.7952 34.6671C26.8343 34.6869 26.8735 34.7166 26.9126 34.7364C27.2453 34.9046 27.5584 34.9838 27.8813 34.9838C28.6935 34.9838 29.2023 34.4692 29.3687 34.3009L32.7152 30.9164C33.0479 30.5799 33.5763 30.1742 34.1928 30.1742C34.7995 30.1742 35.2985 30.5602 35.6019 30.8966C35.6117 30.9065 35.6117 30.9065 35.6215 30.9164L41.0131 36.3692C42.021 37.3787 42.021 38.4178 41.0229 39.4668Z" fill="#FFB41B"></path><path d="M25.935 11.1532C28.4987 11.5886 30.8276 12.8158 32.6868 14.6961C34.546 16.5763 35.7496 18.9317 36.1899 21.5245C36.2976 22.1776 36.8553 22.6328 37.4914 22.6328C37.5697 22.6328 37.6382 22.6229 37.7164 22.6131C38.4405 22.4943 38.92 21.8016 38.8026 21.0692C38.2742 17.9321 36.8064 15.0721 34.5656 12.8059C32.3248 10.5396 29.4968 9.05521 26.3949 8.52082C25.6708 8.40206 24.9956 8.88698 24.8684 9.6094C24.7412 10.3318 25.2109 11.0345 25.935 11.1532Z" fill="#FFB41B"></path><path d="M47.1886 20.6837C46.3177 15.5179 43.9106 10.8172 40.2117 7.07638C36.5129 3.33561 31.8649 0.901133 26.757 0.0203679C26.0427 -0.108283 25.3675 0.386529 25.2403 1.10895C25.1229 1.84127 25.6024 2.52412 26.3265 2.65277C30.8864 3.43457 35.0451 5.62164 38.3525 8.95667C41.66 12.3016 43.8127 16.5075 44.5857 21.1191C44.6934 21.7723 45.2511 22.2275 45.8872 22.2275C45.9655 22.2275 46.034 22.2176 46.1122 22.2077C46.8266 22.0989 47.3158 21.4061 47.1886 20.6837Z" fill="#FFB41B"></path></svg>