<svg xmlns="http://www.w3.org/2000/svg" width="54" height="49" viewBox="0 0 54 49" fill="none"><path d="M53.1118 15.7317L45.3842 9.9935V1.61182C45.3067 0.781537 44.6983 0.115139 43.9123 0H10.0582C9.27225 0.115262 8.6637 0.781537 8.58622 1.61182V9.92896L0.551966 15.7316C0.233723 15.9744 0.0321647 16.3512 0 16.7631V47.3882C0.104477 48.2287 0.733685 48.8903 1.53322 49H52.4372C53.1118 49 53.3572 48.1618 53.3572 47.3882V16.7632C53.3572 16.3764 53.4185 15.9895 53.1118 15.7317ZM45.3842 13.0882L50.6586 16.8921L45.3842 21.0829V13.0882ZM11.0394 2.57896H42.931V23.0817L26.9852 35.7186L11.0393 23.0817V2.57896H11.0394ZM8.58622 13.0238V21.1475L3.31179 16.8922L8.58622 13.0238ZM2.45321 19.5356L19.6257 33.204L2.45321 45.3896V19.5356ZM5.3971 46.4212L21.7108 34.8804L26.0653 38.3619C26.3118 38.5622 26.6124 38.6751 26.9239 38.6843C27.1692 38.6843 27.2919 38.5553 27.5371 38.3619L32.0755 34.6869L48.5733 46.4212H5.3971ZM50.904 44.9383L34.0995 33.0751L50.904 19.5356V44.9383Z" fill="#FFB41B"></path><path d="M17.1739 10.9598H22.6935C23.371 10.9598 23.9201 10.3825 23.9201 9.67034C23.9201 8.95816 23.371 8.38086 22.6935 8.38086H17.1739C16.4964 8.38086 15.9473 8.95816 15.9473 9.67034C15.9473 10.3825 16.4964 10.9598 17.1739 10.9598Z" fill="#FFB41B"></path><path d="M17.1739 16.7635H36.7995C37.477 16.7635 38.0261 16.1862 38.0261 15.474C38.0261 14.7619 37.477 14.1846 36.7995 14.1846H17.1739C16.4964 14.1846 15.9473 14.7619 15.9473 15.474C15.9473 16.1862 16.4964 16.7635 17.1739 16.7635Z" fill="#FFB41B"></path><path d="M38.026 21.2768C38.026 20.5646 37.4769 19.9873 36.7994 19.9873H17.1739C16.4964 19.9873 15.9473 20.5646 15.9473 21.2768C15.9473 21.989 16.4964 22.5663 17.1739 22.5663H36.7995C37.4769 22.5663 38.026 21.989 38.026 21.2768Z" fill="#FFB41B"></path></svg>